<?xml version="1.0" encoding="UTF-8" standalone="no"?>
<svg
   xmlns:dc="http://purl.org/dc/elements/1.1/"
   xmlns:cc="http://creativecommons.org/ns#"
   xmlns:rdf="http://www.w3.org/1999/02/22-rdf-syntax-ns#"
   xmlns:svg="http://www.w3.org/2000/svg"
   xmlns="http://www.w3.org/2000/svg"
   xmlns:sodipodi="http://sodipodi.sourceforge.net/DTD/sodipodi-0.dtd"
   xmlns:inkscape="http://www.inkscape.org/namespaces/inkscape"
   width="360"
   height="250"
   viewBox="0 0 360 250"
   fill="none"
   version="1.1"
   id="svg112"
   sodipodi:docname="light.svg"
   inkscape:version="1.0.1 (3bc2e813f5, 2020-09-07)">
  <metadata
     id="metadata116">
    <rdf:RDF>
      <cc:Work
         rdf:about="">
        <dc:format>image/svg+xml</dc:format>
        <dc:type
           rdf:resource="http://purl.org/dc/dcmitype/StillImage" />
      </cc:Work>
    </rdf:RDF>
  </metadata>
  <sodipodi:namedview
     pagecolor="#ffffff"
     bordercolor="#666666"
     borderopacity="1"
     objecttolerance="10"
     gridtolerance="10"
     guidetolerance="10"
     inkscape:pageopacity="0"
     inkscape:pageshadow="2"
     inkscape:window-width="1366"
     inkscape:window-height="703"
     id="namedview114"
     showgrid="false"
     inkscape:object-paths="true"
     inkscape:zoom="0.70710678"
     inkscape:cx="564.99104"
     inkscape:cy="273.7278"
     inkscape:window-x="0"
     inkscape:window-y="0"
     inkscape:window-maximized="1"
     inkscape:current-layer="svg112" />
  <rect
     y="44.042"
     width="360"
     height="205"
     fill="#464646"
     id="rect2"
     style="fill:%c1%;fill-opacity:1" />
  <path
     opacity="0.8"
     d="M15.0529 222.907C15.0529 222.258 15.1335 221.74 15.2946 221.354C15.4558 220.969 15.7731 220.546 16.2468 220.087C16.7253 219.624 17.028 219.294 17.155 219.099C17.3503 218.801 17.4479 218.479 17.4479 218.132C17.4479 217.673 17.3332 217.324 17.1037 217.084C16.8791 216.84 16.5471 216.718 16.1076 216.718C15.6877 216.718 15.3483 216.838 15.0896 217.077C14.8356 217.312 14.7087 217.631 14.7087 218.037H12.9289C12.9387 217.172 13.2316 216.489 13.8078 215.986C14.3889 215.483 15.1555 215.231 16.1076 215.231C17.0891 215.231 17.8532 215.48 18.4001 215.979C18.9519 216.477 19.2277 217.172 19.2277 218.066C19.2277 218.862 18.8566 219.646 18.1145 220.417L17.2136 221.303C16.8913 221.669 16.7253 222.204 16.7155 222.907H15.0529ZM14.9284 225.185C14.9284 224.897 15.0187 224.665 15.1994 224.489C15.3801 224.309 15.6242 224.218 15.9318 224.218C16.2443 224.218 16.4909 224.311 16.6716 224.497C16.8522 224.677 16.9426 224.907 16.9426 225.185C16.9426 225.454 16.8547 225.678 16.6789 225.859C16.5031 226.04 16.2541 226.13 15.9318 226.13C15.6096 226.13 15.3605 226.04 15.1848 225.859C15.0139 225.678 14.9284 225.454 14.9284 225.185ZM25.5521 226.042H23.7796V217.48L21.1648 218.374V216.872L25.325 215.341H25.5521V226.042ZM36.4285 226.042H29.2581V224.819L32.8104 220.944C33.323 220.373 33.6868 219.897 33.9017 219.516C34.1214 219.13 34.2312 218.745 34.2312 218.359C34.2312 217.851 34.0872 217.441 33.7991 217.128C33.5159 216.816 33.1326 216.66 32.6492 216.66C32.073 216.66 31.6263 216.835 31.3089 217.187C30.9915 217.539 30.8328 218.02 30.8328 218.63H29.053C29.053 217.98 29.1995 217.397 29.4925 216.879C29.7903 216.357 30.2127 215.952 30.7596 215.664C31.3113 215.375 31.9461 215.231 32.6639 215.231C33.699 215.231 34.5145 215.493 35.1102 216.015C35.7107 216.533 36.011 217.25 36.011 218.168C36.011 218.701 35.8597 219.26 35.5569 219.846C35.2591 220.427 34.7684 221.088 34.0848 221.831L31.4773 224.621H36.4285V226.042ZM39.8416 219.897H40.9256C41.4725 219.892 41.9046 219.75 42.222 219.472C42.5442 219.194 42.7054 218.791 42.7054 218.264C42.7054 217.756 42.5711 217.363 42.3025 217.084C42.0389 216.801 41.6336 216.66 41.0867 216.66C40.6082 216.66 40.2151 216.799 39.9075 217.077C39.5999 217.351 39.4461 217.709 39.4461 218.154H37.6663C37.6663 217.607 37.8104 217.109 38.0984 216.66C38.3914 216.21 38.7967 215.861 39.3143 215.612C39.8367 215.358 40.4202 215.231 41.0647 215.231C42.1292 215.231 42.9642 215.5 43.5696 216.037C44.18 216.569 44.4852 217.312 44.4852 218.264C44.4852 218.742 44.3313 219.194 44.0237 219.619C43.721 220.039 43.3279 220.356 42.8445 220.571C43.4305 220.771 43.8748 221.086 44.1775 221.516C44.4852 221.945 44.639 222.458 44.639 223.054C44.639 224.011 44.3094 224.772 43.6502 225.339C42.9959 225.905 42.1341 226.188 41.0647 226.188C40.0394 226.188 39.1995 225.915 38.5452 225.368C37.8909 224.821 37.5638 224.094 37.5638 223.186H39.3436C39.3436 223.654 39.4998 224.035 39.8123 224.328C40.1297 224.621 40.5545 224.768 41.0867 224.768C41.6385 224.768 42.073 224.621 42.3904 224.328C42.7078 224.035 42.8665 223.61 42.8665 223.054C42.8665 222.492 42.7005 222.06 42.3685 221.757C42.0364 221.455 41.5433 221.303 40.889 221.303H39.8416V219.897Z"
     fill="#E6E6E6"
     id="path4"
     style="fill:%c3%;fill-opacity:1" />
  <path
     d="M285.165 227.002C285.165 226.665 285.278 226.392 285.502 226.182C285.732 225.972 286.017 225.867 286.359 225.867C286.706 225.867 286.991 225.972 287.216 226.182C287.446 226.392 287.56 226.665 287.56 227.002C287.56 227.334 287.448 227.605 287.223 227.815C286.999 228.02 286.711 228.123 286.359 228.123C286.012 228.123 285.727 228.02 285.502 227.815C285.278 227.605 285.165 227.334 285.165 227.002Z"
     fill="#E6E6E6"
     id="path6"
     style="fill:%c3%;fill-opacity:1" />
  <path
     d="M40.3188 128.042C40.1991 127.802 40.1017 127.376 40.0269 126.762C39.061 127.765 37.908 128.267 36.5679 128.267C35.37 128.267 34.3854 127.93 33.6143 127.256C32.8506 126.575 32.4688 125.714 32.4688 124.673C32.4688 123.408 32.9479 122.427 33.9062 121.73C34.8721 121.027 36.2272 120.675 37.9717 120.675H39.9932V119.72C39.9932 118.994 39.776 118.417 39.3418 117.991C38.9076 117.556 38.2674 117.339 37.4214 117.339C36.6802 117.339 36.0588 117.527 35.5571 117.901C35.0555 118.275 34.8047 118.728 34.8047 119.26H32.7158C32.7158 118.653 32.9292 118.069 33.356 117.508C33.7902 116.939 34.3742 116.49 35.1079 116.16C35.8491 115.831 36.6615 115.666 37.5449 115.666C38.945 115.666 40.0418 116.018 40.8354 116.722C41.6291 117.418 42.0409 118.38 42.0708 119.608V125.201C42.0708 126.316 42.2131 127.203 42.4976 127.862V128.042H40.3188ZM36.8711 126.458C37.5225 126.458 38.1401 126.29 38.7241 125.953C39.3081 125.616 39.7311 125.178 39.9932 124.639V122.146H38.3647C35.8192 122.146 34.5464 122.891 34.5464 124.381C34.5464 125.032 34.7635 125.541 35.1978 125.908C35.632 126.275 36.1898 126.458 36.8711 126.458Z"
     fill="#E6E6E6"
     id="path8"
     style="fill:%c2%;fill-opacity:1" />
  <path
     d="M75.7178 124.819C75.7178 124.257 75.5044 123.823 75.0776 123.516C74.6584 123.202 73.9209 122.932 72.8652 122.708C71.8171 122.483 70.9823 122.213 70.3608 121.899C69.7469 121.584 69.2902 121.21 68.9907 120.776C68.6987 120.342 68.5527 119.825 68.5527 119.226C68.5527 118.23 68.972 117.388 69.8105 116.699C70.6566 116.01 71.7347 115.666 73.0449 115.666C74.4225 115.666 75.5381 116.022 76.3916 116.733C77.2526 117.444 77.6831 118.354 77.6831 119.462H75.5942C75.5942 118.893 75.3509 118.403 74.8643 117.991C74.3851 117.579 73.7786 117.373 73.0449 117.373C72.2887 117.373 71.6973 117.538 71.2705 117.867C70.8438 118.197 70.6304 118.627 70.6304 119.159C70.6304 119.66 70.8288 120.038 71.2256 120.293C71.6224 120.548 72.3374 120.791 73.3706 121.023C74.4113 121.255 75.2536 121.532 75.8975 121.854C76.5413 122.176 77.0168 122.565 77.3237 123.022C77.6382 123.471 77.7954 124.021 77.7954 124.673C77.7954 125.758 77.3612 126.631 76.4927 127.29C75.6242 127.941 74.4974 128.267 73.1123 128.267C72.139 128.267 71.278 128.094 70.5293 127.75C69.7806 127.406 69.1929 126.926 68.7661 126.312C68.3468 125.691 68.1372 125.021 68.1372 124.302H70.2148C70.2523 124.999 70.5293 125.553 71.0459 125.964C71.57 126.369 72.2588 126.571 73.1123 126.571C73.8984 126.571 74.5273 126.414 74.999 126.099C75.4782 125.777 75.7178 125.35 75.7178 124.819Z"
     fill="#E6E6E6"
     id="path10"
     style="fill:%c2%;fill-opacity:1" />
  <path
     d="M70.8213 176.346H77.9302V178.042H68.2832V176.515L74.9878 167.609H68.3843V165.891H77.5933V167.362L70.8213 176.346Z"
     fill="#E6E6E6"
     id="path12"
     style="fill:%c2%;fill-opacity:1" />
  <path
     opacity="0.8"
     d="M70.6074 229.263H69.0547L74.9922 213.823H76.5352L70.6074 229.263Z"
     fill="#E6E6E6"
     id="path14"
     style="fill:%c3%;fill-opacity:1" />
  <path
     d="M108.444 170.327L111.139 165.891H113.565L109.589 171.899L113.688 178.042H111.285L108.478 173.494L105.67 178.042H103.255L107.354 171.899L103.379 165.891H105.782L108.444 170.327Z"
     fill="#E6E6E6"
     id="path16"
     style="fill:%c2%;fill-opacity:1" />
  <path
     d="M143.927 176.571C144.668 176.571 145.316 176.346 145.87 175.897C146.424 175.448 146.731 174.886 146.791 174.212H148.756C148.718 174.909 148.479 175.571 148.037 176.2C147.595 176.829 147.004 177.331 146.263 177.705C145.529 178.079 144.75 178.267 143.927 178.267C142.272 178.267 140.954 177.716 139.974 176.616C139 175.508 138.514 173.995 138.514 172.079V171.73C138.514 170.548 138.731 169.496 139.165 168.575C139.599 167.654 140.221 166.939 141.029 166.43C141.845 165.921 142.807 165.666 143.916 165.666C145.278 165.666 146.409 166.074 147.307 166.89C148.213 167.706 148.696 168.766 148.756 170.068H146.791C146.731 169.282 146.431 168.638 145.892 168.137C145.361 167.628 144.702 167.373 143.916 167.373C142.86 167.373 142.04 167.755 141.456 168.519C140.88 169.275 140.591 170.372 140.591 171.809V172.202C140.591 173.602 140.88 174.68 141.456 175.437C142.033 176.193 142.856 176.571 143.927 176.571Z"
     fill="#E6E6E6"
     id="path18"
     style="fill:%c2%;fill-opacity:1" />
  <path
     d="M179.011 175.223L182.021 165.891H184.144L179.786 178.042H178.203L173.8 165.891H175.923L179.011 175.223Z"
     fill="#E6E6E6"
     id="path20"
     style="fill:%c2%;fill-opacity:1" />
  <path
     d="M220.402 172.101C220.402 173.958 219.975 175.451 219.122 176.582C218.268 177.705 217.123 178.267 215.685 178.267C214.15 178.267 212.964 177.724 212.125 176.638L212.024 178.042H210.115V160.792H212.192V167.227C213.031 166.186 214.188 165.666 215.663 165.666C217.138 165.666 218.294 166.224 219.133 167.339C219.979 168.455 220.402 169.982 220.402 171.921V172.101ZM218.324 171.865C218.324 170.45 218.051 169.357 217.504 168.586C216.958 167.815 216.172 167.429 215.146 167.429C213.776 167.429 212.791 168.066 212.192 169.338V174.594C212.829 175.867 213.821 176.503 215.168 176.503C216.164 176.503 216.939 176.118 217.493 175.347C218.047 174.576 218.324 173.415 218.324 171.865Z"
     fill="#E6E6E6"
     id="path22"
     style="fill:%c2%;fill-opacity:1" />
  <path
     d="M279.941 165.891L279.998 167.238C280.889 166.19 282.09 165.666 283.603 165.666C285.302 165.666 286.459 166.317 287.073 167.62C287.477 167.036 288.001 166.564 288.645 166.205C289.296 165.846 290.064 165.666 290.947 165.666C293.613 165.666 294.968 167.077 295.013 169.9V178.042H292.935V170.023C292.935 169.155 292.737 168.507 292.34 168.081C291.943 167.646 291.277 167.429 290.341 167.429C289.57 167.429 288.93 167.661 288.42 168.125C287.911 168.582 287.616 169.2 287.533 169.979V178.042H285.444V170.08C285.444 168.313 284.58 167.429 282.85 167.429C281.487 167.429 280.555 168.009 280.054 169.17V178.042H277.976V165.891H279.941Z"
     fill="#E6E6E6"
     id="path24"
     style="fill:%c2%;fill-opacity:1" />
  <path
     d="M248.192 165.891L248.26 167.418C249.188 166.25 250.401 165.666 251.898 165.666C254.466 165.666 255.762 167.115 255.784 170.012V178.042H253.707V170.001C253.699 169.125 253.497 168.477 253.1 168.058C252.711 167.639 252.101 167.429 251.27 167.429C250.596 167.429 250.004 167.609 249.495 167.968C248.986 168.328 248.589 168.799 248.305 169.383V178.042H246.227V165.891H248.192Z"
     fill="#E6E6E6"
     id="path26"
     style="fill:%c2%;fill-opacity:1" />
  <path
     d="M103.076 121.865C103.076 120.001 103.517 118.504 104.401 117.373C105.284 116.235 106.441 115.666 107.871 115.666C109.294 115.666 110.42 116.153 111.251 117.126V110.792H113.329V128.042H111.42L111.319 126.739C110.488 127.757 109.331 128.267 107.849 128.267C106.441 128.267 105.292 127.69 104.401 126.537C103.517 125.384 103.076 123.879 103.076 122.022V121.865ZM105.153 122.101C105.153 123.479 105.438 124.557 106.007 125.335C106.576 126.114 107.362 126.503 108.365 126.503C109.683 126.503 110.645 125.912 111.251 124.729V119.147C110.63 118.002 109.675 117.429 108.388 117.429C107.369 117.429 106.576 117.822 106.007 118.608C105.438 119.395 105.153 120.559 105.153 122.101Z"
     fill="#E6E6E6"
     id="path28"
     style="fill:%c2%;fill-opacity:1" />
  <path
     d="M141.807 128.042V117.497H139.887V115.891H141.807V114.644C141.807 113.341 142.155 112.334 142.852 111.623C143.548 110.912 144.532 110.556 145.805 110.556C146.284 110.556 146.76 110.62 147.231 110.747L147.119 112.432C146.767 112.364 146.393 112.331 145.996 112.331C145.322 112.331 144.802 112.529 144.435 112.926C144.068 113.315 143.885 113.877 143.885 114.61V115.891H146.479V117.497H143.885V128.042H141.807Z"
     fill="#E6E6E6"
     id="path30"
     style="fill:%c2%;fill-opacity:1" />
  <path
     d="M174.121 121.865C174.121 119.971 174.559 118.466 175.435 117.351C176.311 116.228 177.471 115.666 178.916 115.666C180.398 115.666 181.555 116.19 182.386 117.238L182.487 115.891H184.385V127.75C184.385 129.322 183.917 130.561 182.981 131.467C182.053 132.373 180.803 132.826 179.23 132.826C178.354 132.826 177.497 132.639 176.659 132.265C175.82 131.89 175.18 131.377 174.738 130.726L175.816 129.479C176.707 130.58 177.797 131.13 179.084 131.13C180.095 131.13 180.881 130.846 181.443 130.277C182.012 129.708 182.296 128.907 182.296 127.874V126.829C181.465 127.787 180.331 128.267 178.894 128.267C177.471 128.267 176.318 127.694 175.435 126.548C174.559 125.403 174.121 123.842 174.121 121.865ZM176.209 122.101C176.209 123.471 176.49 124.549 177.052 125.335C177.613 126.114 178.399 126.503 179.41 126.503C180.72 126.503 181.682 125.908 182.296 124.718V119.17C181.66 118.009 180.705 117.429 179.433 117.429C178.422 117.429 177.632 117.822 177.063 118.608C176.494 119.395 176.209 120.559 176.209 122.101Z"
     fill="#E6E6E6"
     id="path32"
     style="fill:%c2%;fill-opacity:1" />
  <path
     d="M212.492 117.362C213.413 116.231 214.611 115.666 216.085 115.666C218.653 115.666 219.949 117.115 219.971 120.012V128.042H217.894V120.001C217.886 119.125 217.684 118.477 217.287 118.058C216.898 117.639 216.288 117.429 215.457 117.429C214.783 117.429 214.191 117.609 213.682 117.968C213.173 118.328 212.776 118.799 212.492 119.383V128.042H210.414V110.792H212.492V117.362Z"
     fill="#E6E6E6"
     id="path34"
     style="fill:%c2%;fill-opacity:1" />
  <path
     d="M253.024 115.891V129.446C253.024 131.782 251.965 132.95 249.846 132.95C249.389 132.95 248.966 132.882 248.577 132.748V131.085C248.817 131.145 249.131 131.175 249.521 131.175C249.985 131.175 250.337 131.048 250.576 130.793C250.823 130.546 250.947 130.112 250.947 129.491V115.891H253.024ZM250.733 112.667C250.733 112.338 250.834 112.057 251.037 111.825C251.246 111.586 251.549 111.466 251.946 111.466C252.351 111.466 252.658 111.582 252.867 111.814C253.077 112.046 253.182 112.331 253.182 112.667C253.182 113.004 253.077 113.285 252.867 113.51C252.658 113.734 252.351 113.847 251.946 113.847C251.542 113.847 251.239 113.734 251.037 113.51C250.834 113.285 250.733 113.004 250.733 112.667Z"
     fill="#E6E6E6"
     id="path36"
     style="fill:%c2%;fill-opacity:1" />
  <path
     d="M285.135 122.416L283.833 123.774V128.042H281.755V110.792H283.833V121.225L284.944 119.889L288.729 115.891H291.256L286.528 120.967L291.806 128.042H289.369L285.135 122.416Z"
     fill="#E6E6E6"
     id="path38"
     style="fill:%c2%;fill-opacity:1" />
  <path
     d="M323.033 128.042H320.956V110.792H323.033V128.042Z"
     fill="#E6E6E6"
     id="path40"
     style="fill:%c2%;fill-opacity:1" />
  <path
     d="M14.5308 70.8652C14.5308 68.9561 14.9688 67.4474 15.8447 66.3394C16.7207 65.2238 17.8962 64.666 19.3711 64.666C20.8086 64.666 21.9429 65.1489 22.7739 66.1147L22.8638 64.8906H24.7729V81.7139H22.6953V75.9189C21.8568 76.8174 20.7412 77.2666 19.3486 77.2666C17.8812 77.2666 16.7095 76.6976 15.8335 75.5596C14.965 74.4141 14.5308 72.8979 14.5308 71.0112V70.8652ZM16.6084 71.1011C16.6084 72.4937 16.9004 73.5868 17.4844 74.3804C18.0758 75.174 18.8695 75.5708 19.8652 75.5708C21.1006 75.5708 22.0439 75.0243 22.6953 73.9312V67.979C22.0365 66.9084 21.1006 66.373 19.8877 66.373C18.8844 66.373 18.0871 66.7736 17.4956 67.5747C16.9041 68.3683 16.6084 69.5438 16.6084 71.1011Z"
     fill="#E6E6E6"
     id="path42"
     style="fill:%c2%;fill-opacity:1" />
  <path
     d="M31.04 60.042H29.6289V54.6025L27.9443 55.125V53.9775L30.8887 52.9229H31.04V60.042Z"
     fill="#E6E6E6"
     id="path44"
     style="fill:%c3%;fill-opacity:1" />
  <path
     d="M67.9854 60.042H63.1123V59.0752L65.4121 56.624C65.7279 56.279 65.9606 55.9779 66.1104 55.7207C66.2633 55.4635 66.3398 55.2194 66.3398 54.9883C66.3398 54.6725 66.2601 54.4251 66.1006 54.2461C65.9411 54.0638 65.7132 53.9727 65.417 53.9727C65.098 53.9727 64.8457 54.0833 64.6602 54.3047C64.4779 54.5228 64.3867 54.8109 64.3867 55.1689H62.9707C62.9707 54.736 63.0732 54.3405 63.2783 53.9824C63.4867 53.6243 63.7796 53.3444 64.1572 53.1426C64.5348 52.9375 64.9629 52.835 65.4414 52.835C66.1738 52.835 66.7419 53.0107 67.1455 53.3623C67.5524 53.7139 67.7559 54.2103 67.7559 54.8516C67.7559 55.2031 67.6647 55.5612 67.4824 55.9258C67.3001 56.2904 66.9876 56.7152 66.5449 57.2002L64.9287 58.9043H67.9854V60.042Z"
     fill="#E6E6E6"
     id="path46"
     style="fill:%c3%;fill-opacity:1" />
  <path
     d="M58.6836 74.1782L61.0195 64.8906H63.0972L59.5596 77.042H57.875L54.9214 67.833L52.0464 77.042H50.3618L46.8354 64.8906H48.9019L51.2939 73.9873L54.124 64.8906H55.7974L58.6836 74.1782Z"
     fill="#E6E6E6"
     id="path48"
     style="fill:%c2%;fill-opacity:1" />
  <path
     d="M100.048 55.8623H100.8C101.158 55.8623 101.423 55.7728 101.596 55.5938C101.768 55.4147 101.854 55.1771 101.854 54.8809C101.854 54.5944 101.768 54.3714 101.596 54.2119C101.426 54.0524 101.192 53.9727 100.893 53.9727C100.622 53.9727 100.396 54.0475 100.214 54.1973C100.032 54.3438 99.9404 54.5358 99.9404 54.7734H98.5293C98.5293 54.4023 98.6286 54.0703 98.8271 53.7773C99.029 53.4811 99.3089 53.25 99.667 53.084C100.028 52.918 100.425 52.835 100.858 52.835C101.61 52.835 102.2 53.0156 102.626 53.377C103.052 53.735 103.266 54.2298 103.266 54.8613C103.266 55.1868 103.166 55.4863 102.968 55.7598C102.769 56.0332 102.509 56.2432 102.187 56.3896C102.587 56.5329 102.885 56.7477 103.08 57.0342C103.279 57.3206 103.378 57.6592 103.378 58.0498C103.378 58.6813 103.147 59.1875 102.685 59.5684C102.226 59.9492 101.617 60.1396 100.858 60.1396C100.149 60.1396 99.5677 59.9525 99.1152 59.5781C98.666 59.2038 98.4414 58.709 98.4414 58.0938H99.8525C99.8525 58.3607 99.9518 58.5788 100.15 58.748C100.352 58.9173 100.6 59.002 100.893 59.002C101.228 59.002 101.49 58.9141 101.679 58.7383C101.871 58.5592 101.967 58.3232 101.967 58.0303C101.967 57.3206 101.576 56.9658 100.795 56.9658H100.048V55.8623Z"
     fill="#E6E6E6"
     id="path50"
     style="fill:%c3%;fill-opacity:1" />
  <path
     d="M91.0166 77.2666C89.3695 77.2666 88.0293 76.7275 86.9961 75.6494C85.9629 74.5638 85.4463 73.1151 85.4463 71.3032V70.9214C85.4463 69.716 85.6746 68.6416 86.1313 67.6982C86.5955 66.7474 87.2394 66.0062 88.063 65.4746C88.894 64.9355 89.7925 64.666 90.7583 64.666C92.3381 64.666 93.5659 65.1864 94.4419 66.2271C95.3179 67.2677 95.7559 68.7576 95.7559 70.6968V71.5615H87.5239C87.5539 72.7594 87.902 73.729 88.5684 74.4702C89.2422 75.2039 90.0957 75.5708 91.1289 75.5708C91.8626 75.5708 92.484 75.4211 92.9932 75.1216C93.5023 74.8221 93.9478 74.4253 94.3296 73.9312L95.5986 74.9194C94.5804 76.4842 93.0531 77.2666 91.0166 77.2666ZM90.7583 66.373C89.9198 66.373 89.216 66.68 88.647 67.2939C88.078 67.9004 87.7261 68.7539 87.5913 69.8545H93.6782V69.6973C93.6183 68.6416 93.3338 67.8255 92.8247 67.249C92.3156 66.665 91.6268 66.373 90.7583 66.373Z"
     fill="#E6E6E6"
     id="path52"
     style="fill:%c2%;fill-opacity:1" />
  <path
     d="M138.787 57.3662H139.593V58.5039H138.787V60.042H137.376V58.5039H134.461L134.397 57.6152L137.361 52.9326H138.787V57.3662ZM135.804 57.3662H137.376V54.8564L137.283 55.0176L135.804 57.3662Z"
     fill="#E6E6E6"
     id="path54"
     style="fill:%c3%;fill-opacity:1" />
  <path
     d="M129.049 66.7549C128.734 66.7025 128.394 66.6763 128.027 66.6763C126.664 66.6763 125.74 67.2565 125.253 68.417V77.042H123.175V64.8906H125.197L125.23 66.2944C125.912 65.2088 126.878 64.666 128.128 64.666C128.532 64.666 128.839 64.7184 129.049 64.8232V66.7549Z"
     fill="#E6E6E6"
     id="path56"
     style="fill:%c2%;fill-opacity:1" />
  <path
     d="M170.322 56.5459L170.732 52.9326H174.717V54.1094H171.89L171.714 55.6377C172.049 55.4587 172.406 55.3691 172.783 55.3691C173.46 55.3691 173.991 55.5791 174.375 55.999C174.759 56.4189 174.951 57.0065 174.951 57.7617C174.951 58.2207 174.854 58.6325 174.658 58.9971C174.466 59.3584 174.189 59.64 173.828 59.8418C173.467 60.0404 173.04 60.1396 172.549 60.1396C172.119 60.1396 171.72 60.0534 171.353 59.8809C170.985 59.7051 170.693 59.4593 170.479 59.1436C170.267 58.8278 170.155 58.4681 170.142 58.0645H171.538C171.567 58.3607 171.67 58.5918 171.846 58.7578C172.025 58.9206 172.257 59.002 172.544 59.002C172.863 59.002 173.109 58.888 173.281 58.6602C173.454 58.429 173.54 58.1035 173.54 57.6836C173.54 57.2799 173.441 56.9707 173.242 56.7559C173.044 56.541 172.762 56.4336 172.397 56.4336C172.062 56.4336 171.79 56.5215 171.582 56.6973L171.445 56.8242L170.322 56.5459Z"
     fill="#E6E6E6"
     id="path58"
     style="fill:%c3%;fill-opacity:1" />
  <path
     d="M162.629 61.9482V64.8906H164.897V66.4966H162.629V74.0322C162.629 74.5189 162.73 74.8857 162.932 75.1328C163.134 75.3724 163.479 75.4922 163.965 75.4922C164.205 75.4922 164.534 75.4473 164.954 75.3574V77.042C164.407 77.1917 163.875 77.2666 163.359 77.2666C162.431 77.2666 161.73 76.9858 161.259 76.4243C160.787 75.8628 160.551 75.0654 160.551 74.0322V66.4966H158.339V64.8906H160.551V61.9482H162.629Z"
     fill="#E6E6E6"
     id="path60"
     style="fill:%c2%;fill-opacity:1" />
  <path
     d="M209.94 52.8594V54.0215H209.804C209.166 54.0312 208.651 54.1973 208.261 54.5195C207.873 54.8418 207.641 55.2894 207.562 55.8623C207.94 55.4782 208.417 55.2861 208.993 55.2861C209.612 55.2861 210.103 55.5075 210.468 55.9502C210.832 56.3929 211.015 56.9756 211.015 57.6982C211.015 58.1605 210.914 58.5788 210.712 58.9531C210.513 59.3275 210.23 59.6188 209.862 59.8271C209.498 60.0355 209.084 60.1396 208.622 60.1396C207.873 60.1396 207.268 59.8792 206.806 59.3584C206.347 58.8376 206.117 58.1426 206.117 57.2734V56.7656C206.117 55.9941 206.262 55.3138 206.552 54.7246C206.845 54.1322 207.263 53.6748 207.807 53.3525C208.354 53.027 208.987 52.8626 209.706 52.8594H209.94ZM208.563 56.4189C208.336 56.4189 208.129 56.4792 207.943 56.5996C207.758 56.7168 207.621 56.873 207.533 57.0684V57.498C207.533 57.9701 207.626 58.3395 207.812 58.6064C207.997 58.8701 208.257 59.002 208.593 59.002C208.896 59.002 209.14 58.8831 209.325 58.6455C209.514 58.4046 209.608 58.0938 209.608 57.7129C209.608 57.3255 209.514 57.013 209.325 56.7754C209.136 56.5378 208.882 56.4189 208.563 56.4189Z"
     fill="#E6E6E6"
     id="path62"
     style="fill:%c3%;fill-opacity:1" />
  <path
     d="M197.601 73.9985L200.431 64.8906H202.655L197.77 78.9175C197.013 80.939 195.812 81.9497 194.165 81.9497L193.771 81.916L192.997 81.77V80.0854L193.558 80.1304C194.262 80.1304 194.808 79.9881 195.198 79.7036C195.595 79.4191 195.92 78.8988 196.175 78.1426L196.635 76.9072L192.3 64.8906H194.569L197.601 73.9985Z"
     fill="#E6E6E6"
     id="path64"
     style="fill:%c2%;fill-opacity:1" />
  <path
     d="M246.446 53.7236L243.697 60.042H242.208L244.962 54.0752H241.427V52.9326H246.446V53.7236Z"
     fill="#E6E6E6"
     id="path66"
     style="fill:%c3%;fill-opacity:1" />
  <path
     d="M235.729 75.8403C234.92 76.7912 233.734 77.2666 232.169 77.2666C230.874 77.2666 229.885 76.8923 229.204 76.1436C228.53 75.3874 228.19 74.2718 228.182 72.7969V64.8906H230.26V72.7407C230.26 74.5825 231.008 75.5034 232.506 75.5034C234.093 75.5034 235.149 74.9119 235.673 73.729V64.8906H237.75V77.042H235.774L235.729 75.8403Z"
     fill="#E6E6E6"
     id="path68"
     style="fill:%c2%;fill-opacity:1" />
  <path
     d="M281.746 54.8223C281.746 55.1673 281.66 55.4733 281.487 55.7402C281.315 56.0072 281.077 56.2204 280.774 56.3799C281.119 56.5459 281.393 56.7754 281.595 57.0684C281.797 57.3581 281.897 57.6999 281.897 58.0938C281.897 58.7253 281.683 59.2249 281.253 59.5928C280.823 59.9574 280.239 60.1396 279.5 60.1396C278.761 60.1396 278.175 59.9557 277.742 59.5879C277.309 59.2201 277.093 58.722 277.093 58.0938C277.093 57.6999 277.194 57.3564 277.396 57.0635C277.597 56.7705 277.869 56.5426 278.211 56.3799C277.908 56.2204 277.671 56.0072 277.498 55.7402C277.329 55.4733 277.244 55.1673 277.244 54.8223C277.244 54.2168 277.446 53.735 277.85 53.377C278.253 53.0156 278.802 52.835 279.495 52.835C280.185 52.835 280.732 53.014 281.136 53.3721C281.543 53.7269 281.746 54.2103 281.746 54.8223ZM280.481 57.9912C280.481 57.682 280.392 57.4346 280.213 57.249C280.034 57.0635 279.793 56.9707 279.49 56.9707C279.191 56.9707 278.951 57.0635 278.772 57.249C278.593 57.4313 278.504 57.6787 278.504 57.9912C278.504 58.2939 278.592 58.5381 278.768 58.7236C278.943 58.9092 279.188 59.002 279.5 59.002C279.806 59.002 280.045 58.9124 280.218 58.7334C280.394 58.5544 280.481 58.307 280.481 57.9912ZM280.335 54.8906C280.335 54.6139 280.262 54.3926 280.115 54.2266C279.969 54.0573 279.762 53.9727 279.495 53.9727C279.231 53.9727 279.026 54.054 278.88 54.2168C278.733 54.3796 278.66 54.6042 278.66 54.8906C278.66 55.1738 278.733 55.4017 278.88 55.5742C279.026 55.7467 279.233 55.833 279.5 55.833C279.767 55.833 279.972 55.7467 280.115 55.5742C280.262 55.4017 280.335 55.1738 280.335 54.8906Z"
     fill="#E6E6E6"
     id="path70"
     style="fill:%c3%;fill-opacity:1" />
  <path
     d="M270.033 77.042H267.956V64.8906H270.033V77.042ZM267.787 61.6675C267.787 61.3306 267.888 61.0461 268.09 60.814C268.3 60.5819 268.607 60.4658 269.011 60.4658C269.416 60.4658 269.722 60.5819 269.932 60.814C270.142 61.0461 270.247 61.3306 270.247 61.6675C270.247 62.0044 270.142 62.2852 269.932 62.5098C269.722 62.7344 269.416 62.8467 269.011 62.8467C268.607 62.8467 268.3 62.7344 268.09 62.5098C267.888 62.2852 267.787 62.0044 267.787 61.6675Z"
     fill="#E6E6E6"
     id="path72"
     style="fill:%c2%;fill-opacity:1" />
  <path
     d="M315.913 57.2002C315.545 57.5615 315.116 57.7422 314.624 57.7422C313.996 57.7422 313.493 57.5273 313.115 57.0977C312.738 56.6647 312.549 56.082 312.549 55.3496C312.549 54.8841 312.65 54.4577 312.852 54.0703C313.057 53.6797 313.341 53.377 313.706 53.1621C314.071 52.944 314.481 52.835 314.937 52.835C315.405 52.835 315.822 52.9521 316.187 53.1865C316.551 53.4209 316.834 53.7578 317.036 54.1973C317.238 54.6367 317.34 55.1396 317.344 55.7061V56.2285C317.344 57.4134 317.049 58.3444 316.46 59.0215C315.871 59.6986 315.036 60.0599 313.955 60.1055L313.608 60.1104V58.9336L313.921 58.9287C315.148 58.8734 315.812 58.2972 315.913 57.2002ZM314.971 56.6631C315.199 56.6631 315.394 56.6045 315.557 56.4873C315.723 56.3701 315.848 56.2285 315.933 56.0625V55.4814C315.933 55.0029 315.841 54.6318 315.659 54.3682C315.477 54.1045 315.233 53.9727 314.927 53.9727C314.644 53.9727 314.411 54.1029 314.229 54.3633C314.046 54.6204 313.955 54.9443 313.955 55.335C313.955 55.7223 314.043 56.0413 314.219 56.292C314.398 56.5394 314.648 56.6631 314.971 56.6631Z"
     fill="#E6E6E6"
     id="path74"
     style="fill:%c3%;fill-opacity:1" />
  <path
     d="M298.963 70.854C298.963 69.6636 299.195 68.5929 299.66 67.6421C300.131 66.6912 300.783 65.9575 301.614 65.4409C302.452 64.9243 303.407 64.666 304.478 64.666C306.132 64.666 307.469 65.2388 308.487 66.3843C309.513 67.5298 310.025 69.0534 310.025 70.9551V71.1011C310.025 72.284 309.797 73.3472 309.34 74.2905C308.891 75.2264 308.243 75.9564 307.397 76.4805C306.559 77.0046 305.593 77.2666 304.5 77.2666C302.853 77.2666 301.516 76.6938 300.491 75.5483C299.472 74.4028 298.963 72.8867 298.963 71V70.854ZM301.052 71.1011C301.052 72.4487 301.363 73.5306 301.984 74.3467C302.613 75.1628 303.452 75.5708 304.5 75.5708C305.556 75.5708 306.394 75.159 307.016 74.3354C307.637 73.5044 307.948 72.3439 307.948 70.854C307.948 69.5213 307.63 68.4432 306.993 67.6196C306.364 66.7886 305.526 66.373 304.478 66.373C303.452 66.373 302.625 66.7811 301.996 67.5972C301.367 68.4132 301.052 69.5812 301.052 71.1011Z"
     fill="#E6E6E6"
     id="path76"
     style="fill:%c2%;fill-opacity:1" />
  <path
     d="M353.397 57.1025C353.397 58.0856 353.194 58.8376 352.787 59.3584C352.38 59.8792 351.785 60.1396 351 60.1396C350.225 60.1396 349.633 59.8841 349.223 59.373C348.812 58.862 348.603 58.1296 348.593 57.1758V55.8672C348.593 54.8743 348.798 54.1208 349.208 53.6064C349.621 53.0921 350.215 52.835 350.99 52.835C351.765 52.835 352.357 53.0905 352.768 53.6016C353.178 54.1094 353.388 54.8402 353.397 55.7939V57.1025ZM351.986 55.667C351.986 55.0778 351.905 54.6497 351.742 54.3828C351.583 54.1126 351.332 53.9775 350.99 53.9775C350.658 53.9775 350.412 54.1061 350.253 54.3633C350.097 54.6172 350.014 55.016 350.004 55.5596V57.2881C350.004 57.8675 350.082 58.2988 350.238 58.582C350.398 58.862 350.652 59.002 351 59.002C351.345 59.002 351.594 58.8669 351.747 58.5967C351.9 58.3265 351.98 57.9131 351.986 57.3564V55.667Z"
     fill="#E6E6E6"
     id="path78"
     style="fill:%c3%;fill-opacity:1" />
  <path
     d="M345.379 71.1011C345.379 72.9504 344.956 74.4403 344.11 75.5708C343.264 76.7013 342.119 77.2666 340.674 77.2666C339.199 77.2666 338.038 76.7987 337.192 75.8628V81.7139H335.115V64.8906H337.013L337.114 66.2383C337.96 65.1901 339.135 64.666 340.64 64.666C342.1 64.666 343.253 65.2163 344.099 66.3169C344.953 67.4175 345.379 68.9486 345.379 70.9102V71.1011ZM343.302 70.8652C343.302 69.4951 343.01 68.4132 342.426 67.6196C341.842 66.826 341.041 66.4292 340.022 66.4292C338.765 66.4292 337.821 66.987 337.192 68.1025V73.9087C337.814 75.0168 338.765 75.5708 340.045 75.5708C341.041 75.5708 341.831 75.1777 342.415 74.3916C343.006 73.598 343.302 72.4225 343.302 70.8652Z"
     fill="#E6E6E6"
     id="path80"
     style="fill:%c2%;fill-opacity:1" />
  <g
     clip-path="url(#clip0)"
     id="g88"
     style="fill:%c3%;fill-opacity:1">
    <path
       fill-rule="evenodd"
       clip-rule="evenodd"
       d="M328.707 169.335C329.098 168.944 329.731 168.944 330.121 169.335L336.707 175.921C337.098 176.311 337.098 176.944 336.707 177.335C336.317 177.725 335.683 177.725 335.293 177.335L328.707 170.749C328.317 170.358 328.317 169.725 328.707 169.335Z"
       fill="#DFDFDF"
       id="path82"
       style="fill:%c3%;fill-opacity:1" />
    <path
       fill-rule="evenodd"
       clip-rule="evenodd"
       d="M336.293 169.335C335.902 168.944 335.269 168.944 334.879 169.335L328.293 175.921C327.902 176.311 327.902 176.944 328.293 177.335C328.683 177.725 329.317 177.725 329.707 177.335L336.293 170.749C336.683 170.358 336.683 169.725 336.293 169.335Z"
       fill="#DFDFDF"
       id="path84"
       style="fill:%c3%;fill-opacity:1" />
    <path
       fill-rule="evenodd"
       clip-rule="evenodd"
       d="M325.585 165.042L320.385 173.042L325.585 181.042H340C340.552 181.042 341 180.594 341 180.042V166.042C341 165.49 340.552 165.042 340 165.042H325.585ZM324.5 183.042L318 173.042L324.5 163.042H340C341.657 163.042 343 164.385 343 166.042V180.042C343 181.699 341.657 183.042 340 183.042H324.5Z"
       fill="#DFDFDF"
       id="path86"
       style="fill:%c3%;fill-opacity:1" />
  </g>
  <rect
     opacity="0.15"
     x="136"
     y="209.042"
     width="123"
     height="23"
     rx="3"
     fill="#BCBCBC"
     id="rect90"
     style="fill:%c3%;fill-opacity:1" />
  <g
     clip-path="url(#clip1)"
     id="g94"
     style="fill:%c3%;fill-opacity:1">
    <path
       d="M35.0557 174.042H34.0557V175.042V180.042C34.0557 180.594 33.608 181.042 33.0557 181.042H25.0002C24.4479 181.042 24.0002 180.594 24.0002 180.042V175.042V174.042H23.0002H19.7071C18.8249 174.042 18.3749 172.983 18.9873 172.348L28.5254 162.456L38.744 172.323C39.391 172.947 38.9487 174.042 38.0494 174.042H35.0557Z"
       stroke="#E0E0E0"
       stroke-width="2"
       stroke-linecap="round"
       id="path92"
       style="fill:%c3%;fill-opacity:1" />
  </g>
  <path
     d="M104.531 222.058C105.312 223.37 106.469 224.026 108 224.026C109.531 224.026 110.688 223.37 111.469 222.058H113.109C112.703 223.089 112.031 223.933 111.094 224.589C110.188 225.214 109.156 225.526 108 225.526C106.844 225.526 105.797 225.214 104.859 224.589C103.953 223.933 103.297 223.089 102.891 222.058H104.531ZM102.328 225.714C103.922 227.276 105.812 228.058 108 228.058C110.188 228.058 112.062 227.276 113.625 225.714C115.219 224.12 116.016 222.229 116.016 220.042C116.016 217.854 115.219 215.979 113.625 214.417C112.062 212.823 110.188 212.026 108 212.026C105.812 212.026 103.922 212.823 102.328 214.417C100.766 215.979 99.9844 217.854 99.9844 220.042C99.9844 222.229 100.766 224.12 102.328 225.714ZM100.922 213.011C102.891 211.042 105.25 210.058 108 210.058C110.75 210.058 113.094 211.042 115.031 213.011C117 214.948 117.984 217.292 117.984 220.042C117.984 222.792 117 225.151 115.031 227.12C113.094 229.058 110.75 230.026 108 230.026C105.25 230.026 102.891 229.058 100.922 227.12C98.9844 225.151 98.0156 222.792 98.0156 220.042C98.0156 217.292 98.9844 214.948 100.922 213.011ZM103.406 218.636C103.125 218.323 102.984 217.964 102.984 217.558C102.984 217.151 103.125 216.808 103.406 216.526C103.719 216.214 104.078 216.058 104.484 216.058C104.891 216.058 105.234 216.214 105.516 216.526C105.828 216.808 105.984 217.151 105.984 217.558C105.984 217.964 105.828 218.323 105.516 218.636C105.234 218.917 104.891 219.058 104.484 219.058C104.078 219.058 103.719 218.917 103.406 218.636ZM110.438 218.636C110.156 218.323 110.016 217.964 110.016 217.558C110.016 217.151 110.156 216.808 110.438 216.526C110.75 216.214 111.109 216.058 111.516 216.058C111.922 216.058 112.266 216.214 112.547 216.526C112.859 216.808 113.016 217.151 113.016 217.558C113.016 217.964 112.859 218.323 112.547 218.636C112.266 218.917 111.922 219.058 111.516 219.058C111.109 219.058 110.75 218.917 110.438 218.636Z"
     fill="#666666"
     id="path96"
     style="fill:%c3%;fill-opacity:1" />
  <circle
     cx="331"
     cy="220.042"
     r="17"
     fill="#585858"
     id="circle98"
     style="fill:%c1%;fill-opacity:1" />
  <path
     d="M337.984 215.026H340V221.026H324.812L328.422 224.636L327.016 226.042L321.016 220.042L327.016 214.042L328.422 215.448L324.812 219.058H337.984V215.026Z"
     fill="#DFDFDF"
     id="path100"
     style="fill:%c3%;fill-opacity:1" />
  <rect
     y="0.041999828"
     width="360"
     height="44"
     fill="#464646"
     id="rect102"
     x="0"
     style="fill:%c1%;fill-opacity:1" />
  <defs
     id="defs110">
    <clipPath
       id="clip0">
      <rect
         width="25"
         height="20"
         fill="white"
         transform="translate(318 163.042)"
         id="rect104" />
    </clipPath>
    <clipPath
       id="clip1">
      <rect
         width="24"
         height="21"
         fill="white"
         transform="translate(17 161.042)"
         id="rect107" />
    </clipPath>
  </defs>
</svg>
